<svg id="Camada_1" data-name="Camada 1" xmlns="http://www.w3.org/2000/svg" viewBox="0 0 461.68 192.54"><defs><style>.cls-1{fill:#ed353a;}.cls-2{fill:#2f529a;}.cls-3{fill:#2f529b;}.cls-4{fill:#eb3237;}.cls-5{fill:#cc4757;}.cls-6{fill:#f4f3f7;}.cls-7{fill:#ced6e7;}</style></defs><path class="cls-1" d="M98.47,46.05C108,41.18,118.05,37.63,128.06,34c12.32-4.51,24.91-8.18,37.62-11.44q25.78-6.63,52.11-10.69C232,9.66,246.15,8,260.42,6.72a510.08,510.08,0,0,1,58.76-1.63,336.86,336.86,0,0,1,46.45,4.37c14.42,2.4,28.64,5.57,42.17,11.22,9.1,3.8,17.9,8.17,24.93,15.37a48.45,48.45,0,0,1,6.63,8.8,5.85,5.85,0,0,1,1.85,4.58A30.3,30.3,0,0,1,438.26,71c-2.88,5.47-6.83,10.12-11,14.62a66.4,66.4,0,0,1-8.78,7.28,2.15,2.15,0,0,1-.6-1.91c.37-3,.39-6.12,1.47-9A66.19,66.19,0,0,0,426.76,72a34.8,34.8,0,0,0,4-14,4.85,4.85,0,0,0-.26-1.81,24,24,0,0,0-2-7.76c-2.95-7.22-8.81-11.74-15-15.94C403.81,25.83,392.77,22.1,381.5,19a245.38,245.38,0,0,0-43.33-7.42c-7.61-.68-15.23-1-22.85-1.44-7.42-.39-14.83-.47-22.23-.28-10.86.28-21.73.77-32.57,1.67-15.4,1.29-30.73,3.05-46,5.62-14.47,2.44-28.84,5.36-43.07,9a405,405,0,0,0-50.91,16.35c-3.93,1.58-7.79,3.36-11.81,4.73-1.87-1.72-1.86-1.72-3.9.34a1.92,1.92,0,0,1-.56.36C101.68,48.69,99.71,48.05,98.47,46.05Z" transform="translate(-19.39 -4.88)"/><path class="cls-1" d="M343,130.18a511.82,511.82,0,0,1-61.06,15.66c-13.36,2.56-26.81,4.6-40.32,6.28a534.64,534.64,0,0,1-78.26,4,354.87,354.87,0,0,1-49.22-4.44c-13.3-2.17-26.38-5.13-39-9.89-10.52-4-20.62-8.89-28.65-17.07-5.1-5.2-8.44-11.33-8.93-18.72a29.1,29.1,0,0,1,3.11-14.47c3.21-6.86,8.11-12.45,13.45-17.7.48-.47.94-1.06,1.75-1,.46-.11.71.15.9.51a2.21,2.21,0,0,1-.1,1.8c-2.21,4-2.65,8.47-3.52,12.83a5.37,5.37,0,0,1-.39,1.08,30.55,30.55,0,0,0-3.68,15.72,23.47,23.47,0,0,0,5.42,13.93,42.75,42.75,0,0,0,10.35,9.11c.85.55,1.7,1.12,2.53,1.72A12.68,12.68,0,0,0,69.77,131c8.34,4.87,17.4,7.94,26.62,10.58,14.82,4.25,30,6.54,45.33,7.94,7.84.72,15.69,1,23.55,1.45,7.49.4,15,.52,22.45.26,10.32-.37,20.65-.78,31-1.63A572.26,572.26,0,0,0,279,141.41q24-4.59,47.47-11.5a13.24,13.24,0,0,1,3.66-.26,3,3,0,0,0,2.79-1.28,7,7,0,0,1,3.1-1.43c3.32-1,6.59-2,9.8-3.26a4.12,4.12,0,0,1,2.67-.44c.6,2-.09,3.4-2.62,4.5A5.59,5.59,0,0,0,343,130.18Z" transform="translate(-19.39 -4.88)"/><path class="cls-2" d="M343,130.18c-.28-1.54.36-2.27,1.89-2.72,1.93-.56,3.69-1.53,3.6-4,1.57-8.4,3-16.82,4.41-25.24,2.37-14,4.89-27.92,7.11-41.92.66-4.17-.58-5.75-4.73-6.67-1.32-.29-3.3,0-3.15-2.2s2.07-1.94,3.56-2q20.39,0,40.77,0c3.32,0,4,.69,3.64,4-.49,4.59-.8,9.2-1.49,13.77-.19,1.26,0,3.17-2,3.11s-1.87-1.9-1.95-3.34,0-2.77,0-4.16c-.18-3.88-1.64-5.68-5.4-6.82-3-.91-6.13-.55-9.2-.58-6,0-6,0-7,5.91-1.28,7.51-2.54,15-3.85,22.55-.49,2.84-.33,3,2.62,3h.47c6.91,0,8.77-1.42,10.67-8.09a16.53,16.53,0,0,1,.81-2.65,1.74,1.74,0,0,1,2.1-1A1.63,1.63,0,0,1,387.15,73a12.49,12.49,0,0,1-.3,2.28c-1.42,7.81-2.89,15.6-4.36,23.4a8.38,8.38,0,0,1-.23,1.13c-.31,1-.5,2.29-2,2.08s-1.91-1.44-1.74-2.78a26.27,26.27,0,0,0,.26-5.53c-.19-2.52-1.14-3.63-3.56-4.14a21.75,21.75,0,0,0-4.83-.55c-2.53.05-2.71.3-3.37,2.82-2.24,8.66-3.25,17.55-5,26.31-.31,1.65-.71,3.3,0,5s1.87,1.92,3.31,2.07a36.51,36.51,0,0,0,13.48-1.12c5.06-1.39,8.15-5,10.61-9.32,1-1.73,1.78-3.58,2.72-5.34.56-.7,1.1-1.49,2.11-.58,1.09.57,1.1,1.4.81,2.51-1.22,4.72-3.08,9.24-4.19,14-1.18,5-1.33,5-6.56,5Z" transform="translate(-19.39 -4.88)"/><path class="cls-2" d="M66.92,129.87l-2.26-1.49c-10.69-9.16-14-21.17-13.45-34.65a18.68,18.68,0,0,1,1-4.46c1-5.39,1.91-10.78,4.28-15.78a5,5,0,0,1,.82-2C60.6,64,65,57.27,71.25,51.91,78.16,46,86,43.5,95.08,45.22a16.65,16.65,0,0,1,2.58.94c-.23,1.49-1.68,1.5-2.63,2.11-.69.45-1.52.66-2.25,1a4.7,4.7,0,0,1-1.61.57c-5.83-.13-10,2.94-13.46,7.13a39.88,39.88,0,0,0-6.5,12.14,85,85,0,0,0-4.94,22.27,66.51,66.51,0,0,0,.06,15.89,34.46,34.46,0,0,0,3.78,12.3c2.8,5.07,7,7,12.78,6.19s9.22-4.68,12.71-8.64c1.17-1.33,2.08-2.87,3.12-4.3.65-.91,1.4-1.79,2.67-1a2.06,2.06,0,0,1,.87,3c-3.53,6.11-7.32,12-13.76,15.56a20.7,20.7,0,0,1-19.36.53C68.4,130.62,67.7,130.16,66.92,129.87Z" transform="translate(-19.39 -4.88)"/><path class="cls-2" d="M429.16,48.49A15,15,0,0,1,431,56.18,5,5,0,0,1,430,58.44c-3.13,4.41-5.12,9.35-6.95,14.41-1.06,2.93-1.64,6-3.07,8.83a52.2,52.2,0,0,0-1.49,11.19c-1,8.3-.56,16.49,2.63,24.28a18.57,18.57,0,0,0,4.26,6.18c3.82,3.69,8.31,4,13.12,2.49a16.84,16.84,0,0,0,7.44-4.93c2.36-2.6,5-5,6.88-8,.31-.47.51-1.59,1.47-.79.61.51,1.75.82,1,2.14-3.61,6.36-8,12.11-14.44,15.79-8.28,4.72-19.81,2.41-26.31-5.08-5.32-6.14-8-13.44-9-21.39-.06-.46-.15-.91-.22-1.36-1.5-2.06-.75-4.41-.89-6.64.94-13.58,4.24-26.36,12.82-37.33a49.69,49.69,0,0,1,9.86-9A2.7,2.7,0,0,1,429.16,48.49Z" transform="translate(-19.39 -4.88)"/><path class="cls-1" d="M405,95.26q.15,3.48.28,6.94c-3.53,2.37-7.23,4.47-11,6.48-.88-.35-1.35.17-1.76.82a6,6,0,0,1-2.15,1.7c-8.58,4.32-17.17,8.63-26.23,11.89-.85.3-1.68.87-2.63.28a7.2,7.2,0,0,1,0-5.13,3,3,0,0,1,1.95-1.49,213.85,213.85,0,0,0,39.72-20.91C403.7,95.49,404.19,94.82,405,95.26Z" transform="translate(-19.39 -4.88)"/><path class="cls-3" d="M441.21,49.43c-.62-1.52-1.23-3-1.85-4.58a26.25,26.25,0,0,1,13.55,2c3.31,1.41,3.61,1.28,6.16-1.48a1.87,1.87,0,0,1,1.91-.43c.93.15.58,1,.54,1.5q-1,11.15-2.06,22.27c-.06.63.24,1.65-1.1,1.56s-1.27-.89-1.32-1.75A35.86,35.86,0,0,0,455,58.13C452.57,51.7,448.11,48.92,441.21,49.43Z" transform="translate(-19.39 -4.88)"/><path class="cls-4" d="M92.62,48.92l5-2.76.81-.11c1.74,1.19,3.49,2.31,5.75,1.48.61,1.45-.42,2.08-1.41,2.64a31.67,31.67,0,0,1-4.46,2.17,1.73,1.73,0,0,1-.68,0C96.14,51,93.91,50.63,92.62,48.92Z" transform="translate(-19.39 -4.88)"/><path class="cls-5" d="M57.31,71.49a3.46,3.46,0,0,1-.82,2l-.64-.64Z" transform="translate(-19.39 -4.88)"/><path class="cls-3" d="M108.34,46.92q-.93,9.39-1.85,18.77c-.11,1.07-.18,2.14-.33,3.21-.09.6.14,1.45-1,1.35-1-.09-1.29-.63-1.33-1.5a43.33,43.33,0,0,0-.93-6.6,20.52,20.52,0,0,0-4.85-10c1.4-.77,2.79-1.58,4.23-2.29a2.94,2.94,0,0,0,2-2.32,6.19,6.19,0,0,0,1.12-1.36,1.81,1.81,0,0,1,2.27-1.3C108.89,45.16,108,46.25,108.34,46.92Z" transform="translate(-19.39 -4.88)"/><path class="cls-2" d="M324,63.28c-4.5,10.2-8.69,20.55-13.59,30.57-5.59,11.45-10.36,23.26-15.68,34.83-.4.88-.73,1.7-1.95,1.49s-.82-1.32-.89-2q-3-31.15-5.95-62.31a2.13,2.13,0,0,0-.38-1.15c-1.35,8.07-2.37,16.21-4.13,24.19-2.06,9.38-3.46,18.84-5,28.29a27.81,27.81,0,0,0-.28,4.37c0,3.94.92,5.08,4.8,6.16.64.17,1.38.18,1.27,1.24s-.61,1.27-1.52,1.26H264c-.5,0-1.21.2-1.27-.61,0-.66-.1-1.46.83-1.68,5.77-1.36,6.59-6.26,7.43-10.84,2.61-14.23,5.12-28.47,7.41-42.75,1.07-6.65,3-13.13,3.86-19.81.49-3.68.08-4.27-3.49-5.13-1.2-.29-2.43-.44-3.64-.69-.62-.13-1.46,0-1.29-1.15.12-.81.45-1.24,1.33-1.24,6,0,12.05,0,18.07,0,1.25,0,1.29.82,1.37,1.69q1.19,13.11,2.39,26.22c.9,9.66,1.81,19.31,2.77,29.67.79-1.63,1.32-2.66,1.79-3.71,2.18-4.83,4.13-9.79,6.56-14.5,6.34-12.29,11.44-25.14,17.23-37.67a2.41,2.41,0,0,1,2.57-1.73c4.86.1,9.73,0,14.6.06.59,0,1.53-.44,1.72.59A1.48,1.48,0,0,1,343,48.76c-3.13.61-4.27,2.89-5.06,5.65-3,10.66-4.05,21.68-6.09,32.52-1.95,10.36-3.59,20.77-5.37,31.16,0,.23-.12.45-.15.68-.75,6.9-.29,7.86,5.88,9,.45.08.94.11,1.18.6-.09,1.46-.9,1.9-2.3,1.81s-2.77,0-4.15.06c-6.16,0-12.33,0-18.49-.14-.75,0-2,.67-2.21-.81s.93-1.63,1.89-1.72c4.09-.37,5.86-3,6.51-6.64q2.58-14.62,5.1-29.27,2.22-12.81,4.4-25.65c.13-.75.2-1.52.29-2.28a.54.54,0,0,0,0-.57C324.28,63,324.13,63.17,324,63.28Z" transform="translate(-19.39 -4.88)"/><path class="cls-6" d="M69,130.55l0,.63a4.43,4.43,0,0,1-2-1.31A2.49,2.49,0,0,1,69,130.55Z" transform="translate(-19.39 -4.88)"/><path class="cls-1" d="M97.66,52.08C88.42,57.17,79.1,62.13,70.79,68.73a36.83,36.83,0,0,1,6.5-12A54.45,54.45,0,0,1,91.13,49.4l1.49-.48C94.35,49.88,96.48,50.23,97.66,52.08Z" transform="translate(-19.39 -4.88)"/><path class="cls-2" d="M191.52,46.27c3.32,0,6.64,0,10,0,.64,0,1.67-.53,1.87.68A1.48,1.48,0,0,1,202,48.79c-2.9.61-4,2.7-4.74,5.33-3.17,11-4.23,22.44-6.34,33.66-1.95,10.35-3.59,20.77-5.35,31.16a19.44,19.44,0,0,0-.28,2.28c-.22,4.4.57,5.36,4.84,6.39.71.17,2.1-.33,2,1.24s-1.38,1.32-2.41,1.32q-9.39,0-18.77,0c-.55,0-1.37.3-1.47-.63-.07-.66-.11-1.42.69-1.79,2.53-1.16,3.08-3.54,3.51-5.89q2-11.23,3.95-22.5,3.71-21.6,7.35-43.22c.84-5-.49-6.77-4.54-7.42-.57-.09-1.28-.16-1.1-1.11s.5-1.36,1.51-1.35C184.41,46.3,188,46.27,191.52,46.27Z" transform="translate(-19.39 -4.88)"/><path class="cls-7" d="M324,63.28l.49-1.27c.61.71.27,1.24-.05,1.76Z" transform="translate(-19.39 -4.88)"/><path class="cls-2" d="M261.28,72.09c-1.1-8.65-3.12-16.89-10.14-23a16.69,16.69,0,0,0-15-4.07c-8.25,1.72-14.33,6.8-19.43,13.22-8.83,11.1-13.2,23.88-14.17,37.87-.67,9.64.81,18.91,6,27.26,4.41,7,10.72,10.16,19.07,8.76a23.81,23.81,0,0,0,10.25-4.55c7.1-5.21,12.19-12.2,16.31-19.74,5.13-9.4,7.16-19.75,7.13-30.45A42.57,42.57,0,0,0,261.28,72.09Zm-22.84,44.33a31.54,31.54,0,0,1-4.33,6.81,15.84,15.84,0,0,1-4,3.5c-5.15,3.1-10.43,1.53-12.87-3.93-2.3-5.13-2.43-10.61-2.44-18,.57-12.57,2.8-26.74,8.45-40.17a43.75,43.75,0,0,1,6.66-10.93,14.59,14.59,0,0,1,4-3.46c4.8-2.76,9.57-1.36,12,3.59a28.69,28.69,0,0,1,2.62,12.8C248.67,83.91,245.77,100.63,238.44,116.42Z" transform="translate(-19.39 -4.88)"/><path class="cls-2" d="M147.25,86.92c9.45-3.19,14.31-9.87,15.21-19.7,1-11.07-5.79-19.8-16.62-20.71-4.44-.37-9-.06-13.43-.06v-.18c-4.17,0-8.34,0-12.51,0-1,0-1.33.32-1.49,1.27-.2,1.14.61,1.06,1.22,1.22s1.37.23,2,.4c4,1,4.94,2.22,4.76,6.34A19.38,19.38,0,0,1,126.1,58q-5.19,30.15-10.39,60.28c-.75,4.33-1.51,8.67-7,9.54-1,.15-.82,1-.83,1.65,0,.81.65.71,1.17.71h20.63c.79,0,1.28-.2,1.42-1.11s-.39-1.16-1.09-1.42c-3.74-1.39-4.29-2-3.66-6,1.68-10.72,3.54-21.4,5.34-32.1.13-.76.31-1.7,1.39-1.31,1.43.52,3.67-.7,4.22,1.66,1,4.39,2.33,8.69,3.48,13,2.21,8.4,4.13,16.88,6.21,25.32.2.79.07,1.92,1.52,1.9,4.17-.05,8.34,0,12.51,0,.72,0,1.22-.17,1.18-1,0-.67.17-1.49-.89-1.55-3.94-.23-5.29-3.13-6.16-6.25-3-10.81-5.88-21.67-8.88-32.49C145.93,87.7,146.14,87.3,147.25,86.92Zm-12.57-3.28c-1.46-.22-1.9-.72-1.62-2.26,1.57-8.7,3-17.42,4.57-26.12.35-1.92.18-4.37,3-4.89,3-.55,5.56.11,7.39,2.64,2.27,3.16,2.64,6.82,2.6,10.56a35.52,35.52,0,0,1-2,12C146.31,81.72,141.16,84.63,134.68,83.64Z" transform="translate(-19.39 -4.88)"/><path class="cls-1" d="M19.39,191.59V172.28h5.17c2.41,4.34,6.87,12.15,7.75,14.26h.06c-.22-2-.22-5.37-.22-8.54v-5.72h3.79v19.31H31c-2.08-3.78-7-12.76-8-15h0c.14,1.69.18,5.66.18,9.11v5.88Z" transform="translate(-19.39 -4.88)"/><path class="cls-1" d="M39.69,171.15h4v3.58h-4Zm0,5.94h4v14.5h-4Z" transform="translate(-19.39 -4.88)"/><path class="cls-1" d="M45.93,177.09h2.23v-3.92h4v3.92H55v3H52.17v7.15c0,1.1.34,1.53,1.53,1.53a7.64,7.64,0,0,0,.92,0v2.75a8.84,8.84,0,0,1-2.7.28c-2.83,0-3.76-1.51-3.76-4.05v-7.62H45.93Z" transform="translate(-19.39 -4.88)"/><path class="cls-1" d="M57.36,181c0-1.44,0-2.72,0-3.93h3.94c0,.33.1,1.77.1,2.55A4.64,4.64,0,0,1,66,176.76v3.83c-2.91-.08-4.65.7-4.65,4.68v6.32h-4Z" transform="translate(-19.39 -4.88)"/><path class="cls-1" d="M81.62,184.31c0,4.39-2.62,7.61-7.21,7.61s-7.12-3.2-7.12-7.53,2.71-7.63,7.31-7.63C78.86,176.76,81.62,179.77,81.62,184.31Zm-10.26,0c0,2.79,1.2,4.44,3.14,4.44s3-1.65,3-4.42c0-3-1.11-4.46-3.11-4.46S71.36,181.28,71.36,184.34Z" transform="translate(-19.39 -4.88)"/><path class="cls-1" d="M97.68,189.82c0,4.65-1.72,7.6-7.21,7.6-5.29,0-6.34-3-6.47-4.59h4.09a2.3,2.3,0,0,0,2.56,1.67c2.6,0,3.09-1.59,3.09-4.43v-.69a4.28,4.28,0,0,1-4.08,2c-3.82,0-6-3.12-6-7,0-4.53,2.71-7.63,6.33-7.63,2.49,0,3.52,1.17,3.74,1.84,0-.39.13-1.27.16-1.51h3.81c0,1.3,0,2.77,0,4.16Zm-9.89-5.61c0,2.49,1.24,4,3,4,2.42,0,3.06-1.65,3.06-4.09s-.43-4.11-3-4.11C89.15,180,87.79,181.31,87.79,184.21Z" transform="translate(-19.39 -4.88)"/><path class="cls-1" d="M104.54,185.2c0,1.81.91,3.58,2.91,3.58a2.29,2.29,0,0,0,2.53-1.55h4c-.51,1.78-2.09,4.69-6.65,4.69-4.77,0-6.84-3.57-6.84-7.37,0-4.55,2.33-7.79,7-7.79,5,0,6.67,3.6,6.67,7.22a7.85,7.85,0,0,1-.06,1.22Zm4.77-14,3.24,4.19H109l-1.42-2.08-1.32,2.08H102.6l3.27-4.19Zm.83,11.56c0-1.68-.71-3.1-2.66-3.1s-2.7,1.32-2.86,3.1Z" transform="translate(-19.39 -4.88)"/><path class="cls-1" d="M117,180.74c0-1.23,0-2.58,0-3.65h3.88a17,17,0,0,1,.16,1.85,4.41,4.41,0,0,1,4.2-2.18c2.91,0,4.8,2,4.8,5.61v9.22h-4v-8.78c0-1.63-.54-2.81-2.31-2.81S121,181,121,183.51v8.08h-4Z" transform="translate(-19.39 -4.88)"/><path class="cls-1" d="M133.57,171.15h4v3.58h-4Zm0,5.94h4v14.5h-4Z" transform="translate(-19.39 -4.88)"/><path class="cls-1" d="M154.67,184.31c0,4.39-2.62,7.61-7.21,7.61s-7.12-3.2-7.12-7.53,2.71-7.63,7.31-7.63C151.91,176.76,154.67,179.77,154.67,184.31Zm-10.26,0c0,2.79,1.2,4.44,3.14,4.44s3-1.65,3-4.42c0-3-1.11-4.46-3.11-4.46S144.41,181.28,144.41,184.34Z" transform="translate(-19.39 -4.88)"/><path class="cls-1" d="M164.7,172.28h4.18v15.89h9.61l-.47,3.42H164.7Z" transform="translate(-19.39 -4.88)"/><path class="cls-1" d="M180.89,177.09h4v14.5h-4Zm8.16-6.22L184.58,175h-3.51l3.22-4.15Z" transform="translate(-19.39 -4.88)"/><path class="cls-1" d="M197.8,190c-.82,1.33-2.11,1.88-4.05,1.88-3.22,0-6.09-2.41-6.09-7.44,0-4.67,2.81-7.72,6.43-7.72,2.31,0,3.37.93,3.71,1.69,0-.37.07-1,.13-1.36h3.78c0,1.21,0,2.66,0,4v16.08H197.8Zm-6-5.69c0,2.58.94,4.36,3.06,4.36,2.46,0,3-1.78,3-4.41,0-2.8-.56-4.33-2.95-4.33C192.77,180,191.78,181.76,191.78,184.35Z" transform="translate(-19.39 -4.88)"/><path class="cls-1" d="M218,187.38c0,1.39,0,2.91,0,4.21h-3.93c-.06-.39-.08-1.17-.11-1.68a4.13,4.13,0,0,1-4,2c-2.95,0-4.84-1.79-4.84-5.39v-9.44h4v8.64c0,1.6.5,2.92,2.24,2.92s2.58-1,2.58-3.84v-7.72h4Z" transform="translate(-19.39 -4.88)"/><path class="cls-1" d="M221.66,171.15h4v3.58h-4Zm0,5.94h4v14.5h-4Z" transform="translate(-19.39 -4.88)"/><path class="cls-1" d="M242.57,171.15V187.6c0,1.32,0,2.66,0,4h-3.86c-.08-.44-.16-1.19-.18-1.52-.7,1.14-1.95,1.85-4.11,1.85-3.67,0-6-2.94-6-7.46s2.48-7.7,6.58-7.7c2.09,0,3.21.73,3.53,1.38v-7Zm-10,13.2c0,2.83,1.1,4.36,3.07,4.36,2.76,0,3.07-2.3,3.07-4.39,0-2.47-.35-4.35-3-4.35C233.64,180,232.57,181.62,232.57,184.35Z" transform="translate(-19.39 -4.88)"/><path class="cls-1" d="M259.62,184.31c0,4.39-2.63,7.61-7.22,7.61s-7.12-3.2-7.12-7.53,2.71-7.63,7.31-7.63C256.86,176.76,259.62,179.77,259.62,184.31Zm-10.27,0c0,2.79,1.2,4.44,3.14,4.44s3-1.65,3-4.42c0-3-1.11-4.46-3.11-4.46S249.35,181.28,249.35,184.34Z" transform="translate(-19.39 -4.88)"/><path class="cls-1" d="M272.34,185.2c0,1.81.91,3.58,2.91,3.58a2.29,2.29,0,0,0,2.53-1.55h4c-.51,1.78-2.09,4.69-6.65,4.69-4.77,0-6.84-3.57-6.84-7.37,0-4.55,2.33-7.79,7-7.79,5,0,6.67,3.6,6.67,7.22a7.85,7.85,0,0,1-.06,1.22Zm5.6-2.47c0-1.68-.71-3.1-2.66-3.1s-2.7,1.32-2.86,3.1Z" transform="translate(-19.39 -4.88)"/><path class="cls-1" d="M308.5,191.59h-3.05a9.9,9.9,0,0,1-.32-1.91c-1.07,1.45-3,2.23-5.64,2.23-5.61,0-8.74-4.24-8.74-9.73,0-5.81,3.38-10.18,9.46-10.18,5,0,7.9,2.81,8.36,6.1H304.4c-.4-1.3-1.42-2.82-4.24-2.82-4,0-5.09,3.31-5.09,6.71s1.29,6.6,5.11,6.6c3.57,0,4.23-2.48,4.23-4.21v-.17h-4.23v-3.42h8.32Z" transform="translate(-19.39 -4.88)"/><path class="cls-1" d="M324.09,187.84a31.15,31.15,0,0,0,.2,3.75h-3.84a6.23,6.23,0,0,1-.2-1.42c-.53.81-1.51,1.75-4.07,1.75-3.5,0-5-2.29-5-4.54,0-3.3,2.65-4.83,6.9-4.83h2.07v-.88c0-1-.37-2-2.24-2-1.69,0-2.06.72-2.25,1.77h-3.81c.22-2.57,1.81-4.66,6.22-4.63,3.88,0,6,1.54,6,5ZM320.18,185h-1.64c-2.41,0-3.31.74-3.31,2.13a1.86,1.86,0,0,0,2.09,1.94c2.55,0,2.86-1.78,2.86-3.69Zm3.73-14.12L319.44,175h-3.51l3.22-4.15Z" transform="translate(-19.39 -4.88)"/><path class="cls-1" d="M330.43,187.23a2.5,2.5,0,0,0,2.74,1.8c1.48,0,2-.53,2-1.41s-.62-1.29-2.69-1.8c-4.73-1.17-5.5-2.63-5.5-4.67s1.51-4.39,5.88-4.39,5.88,2.4,6,4.36h-3.82c-.13-.53-.48-1.55-2.37-1.55-1.33,0-1.76.59-1.76,1.24s.45,1.07,2.81,1.62c4.83,1.13,5.52,2.78,5.52,4.91,0,2.4-1.83,4.58-6.25,4.58s-6.22-2.12-6.53-4.69Z" transform="translate(-19.39 -4.88)"/><path class="cls-1" d="M365.58,185.63c-.78,3.61-3.49,6.23-8.33,6.23-6.12,0-9-4.33-9-9.82,0-5.3,3-10,9.21-10,5.14,0,7.63,3,8.11,6.25h-4.18a3.78,3.78,0,0,0-4.06-3c-3.44,0-4.77,3.09-4.77,6.6,0,3.27,1.15,6.71,4.88,6.71a3.84,3.84,0,0,0,3.95-3Z" transform="translate(-19.39 -4.88)"/><path class="cls-1" d="M380.34,187.84a31.15,31.15,0,0,0,.2,3.75H376.7a6.23,6.23,0,0,1-.2-1.42c-.52.81-1.51,1.75-4.07,1.75-3.5,0-5-2.29-5-4.54,0-3.3,2.65-4.83,6.9-4.83h2.07v-.88c0-1-.37-2-2.23-2-1.7,0-2.07.72-2.25,1.77h-3.82c.22-2.57,1.81-4.66,6.22-4.63,3.88,0,6,1.54,6,5ZM376.43,185H374.8c-2.42,0-3.32.74-3.32,2.13a1.87,1.87,0,0,0,2.09,1.94c2.55,0,2.86-1.78,2.86-3.69Z" transform="translate(-19.39 -4.88)"/><path class="cls-1" d="M384,181c0-1.44,0-2.72,0-3.93h3.93c.05.33.11,1.77.11,2.55a4.63,4.63,0,0,1,4.65-2.88v3.83c-2.92-.08-4.65.7-4.65,4.68v6.32h-4Z" transform="translate(-19.39 -4.88)"/><path class="cls-1" d="M394.89,171.15h4v7.48c.59-.93,1.79-1.87,4.14-1.87,3.95,0,5.92,3.26,5.92,7.32s-2.14,7.84-6.3,7.84c-2.16,0-3.11-.65-3.81-1.71a7,7,0,0,1-.16,1.38h-3.83c0-1.58,0-3.17,0-4.74Zm10,13c0-2.42-.89-4.19-3.06-4.19s-3.11,1.49-3.11,4.45c0,2.44.73,4.31,3.06,4.31C403.82,188.73,404.89,186.9,404.89,184.16Z" transform="translate(-19.39 -4.88)"/><path class="cls-1" d="M425.37,184.31c0,4.39-2.62,7.61-7.21,7.61s-7.12-3.2-7.12-7.53,2.71-7.63,7.31-7.63C422.61,176.76,425.37,179.77,425.37,184.31Zm-5.46-13.14,3.25,4.19h-3.6l-1.42-2.08-1.32,2.08h-3.61l3.26-4.19Zm-4.8,13.17c0,2.79,1.2,4.44,3.14,4.44s3.05-1.65,3.05-4.42c0-3-1.11-4.46-3.11-4.46S415.11,181.28,415.11,184.34Z" transform="translate(-19.39 -4.88)"/><path class="cls-1" d="M428.15,180.74c0-1.23,0-2.58,0-3.65H432a17,17,0,0,1,.16,1.85,4.41,4.41,0,0,1,4.2-2.18c2.91,0,4.8,2,4.8,5.61v9.22h-4v-8.78c0-1.63-.54-2.81-2.31-2.81s-2.68.95-2.68,3.51v8.08h-4Z" transform="translate(-19.39 -4.88)"/><path class="cls-1" d="M444.73,171.15h4v3.58h-4Zm0,5.94h4v14.5h-4Z" transform="translate(-19.39 -4.88)"/><path class="cls-1" d="M464.9,186.9c-.5,2.42-2.2,5-6.52,5-4.51,0-6.83-3.12-6.83-7.48s2.61-7.68,7-7.68c4.89,0,6.25,3.5,6.33,5.14H461a2.26,2.26,0,0,0-2.48-2c-1.84,0-2.88,1.6-2.88,4.41,0,3.09,1.1,4.5,2.86,4.5A2.46,2.46,0,0,0,461,186.9Z" transform="translate(-19.39 -4.88)"/><path class="cls-1" d="M481.06,184.31c0,4.39-2.62,7.61-7.21,7.61s-7.12-3.2-7.12-7.53,2.71-7.63,7.31-7.63C478.3,176.76,481.06,179.77,481.06,184.31Zm-10.26,0c0,2.79,1.2,4.44,3.14,4.44s3.05-1.65,3.05-4.42c0-3-1.11-4.46-3.11-4.46S470.8,181.28,470.8,184.34Z" transform="translate(-19.39 -4.88)"/></svg>