<svg id="Camada_1" data-name="Camada 1" xmlns="http://www.w3.org/2000/svg" viewBox="0 0 492.83 188.48"><path d="M58.4,18.83H38.76V72.46H25.55V18.83H6.17V8.09H58.4Z" transform="translate(-6.17 -8.09)"/><path d="M83.11,73.35q-10.47,0-17.06-6.46t-6.59-17.2V48.45a29,29,0,0,1,2.78-12.88,20.43,20.43,0,0,1,7.86-8.76,22,22,0,0,1,11.6-3.07q9.78,0,15.4,6.19t5.61,17.55V52.7H72.37a11.86,11.86,0,0,0,3.72,7.51A11.21,11.21,0,0,0,84,63q7.35,0,11.5-5.35l6.25,7A19.08,19.08,0,0,1,94,71.07,25.33,25.33,0,0,1,83.11,73.35ZM81.66,34a7.92,7.92,0,0,0-6.14,2.58,13.26,13.26,0,0,0-3,7.37H90.2V43a9.49,9.49,0,0,0-2.29-6.6A8.18,8.18,0,0,0,81.66,34Z" transform="translate(-6.17 -8.09)"/><path d="M129.76,63a8.3,8.3,0,0,0,5.72-1.94,6.83,6.83,0,0,0,2.29-5.17h11.94a16.42,16.42,0,0,1-2.64,8.9A17.45,17.45,0,0,1,140,71.11a22.15,22.15,0,0,1-10,2.24q-10.23,0-16.12-6.53t-5.91-18V48q0-11.05,5.86-17.64t16.08-6.59q8.94,0,14.34,5.1t5.48,13.6H137.77a8.81,8.81,0,0,0-2.29-6.07,8.5,8.5,0,0,0-12.53.92q-2.27,3.26-2.27,10.57v1.32q0,7.4,2.25,10.63C124.43,62,126.7,63,129.76,63Z" transform="translate(-6.17 -8.09)"/><path d="M168.69,24.62l.4,5.53a16.61,16.61,0,0,1,13.7-6.41q7.58,0,11.27,4.46t3.79,13.36v30.9H185.12V41.87c0-2.72-.59-4.68-1.76-5.91s-3.13-1.83-5.86-1.83a8.74,8.74,0,0,0-8.06,4.6V72.46H156.71V24.62Z" transform="translate(-6.17 -8.09)"/><path d="M205.51,48.1a28.48,28.48,0,0,1,2.73-12.69,20.05,20.05,0,0,1,7.87-8.62A22.8,22.8,0,0,1,228,23.74q9.64,0,15.75,5.92t6.8,16.1l.09,3.27q0,11-6.12,17.66t-16.43,6.66q-10.31,0-16.45-6.64t-6.15-18Zm12.73.91q0,6.81,2.56,10.43a9.16,9.16,0,0,0,14.53,0q2.59-3.57,2.6-11.4,0-6.69-2.6-10.36A8.44,8.44,0,0,0,228,34a8.3,8.3,0,0,0-7.22,3.65Q218.24,41.35,218.24,49Z" transform="translate(-6.17 -8.09)"/><path d="M389,44.77c3.92-1.89,7.86-3.76,11.76-5.71a8.19,8.19,0,0,1,6.65-.53c1.39.5,2.8.94,4.14,1.55,4.1,1.88,7.46,4.43,8.74,9.11.8,2.92,1.84,5.79,2.93,8.62,1.48,3.84.77,7.41-1,10.94a30.73,30.73,0,0,1-4.48,7.13,14,14,0,0,0-3.48,9.25c-.25,5.21-4,8-9,7-.71-.14-1.45-.12-2.56-.21a60.39,60.39,0,0,1,4.12,8.07c1,2.47.54,4.2-1.36,6.13a33.08,33.08,0,0,0-9.72,24.56,99.42,99.42,0,0,1-2.34,24.94c-1.53,6.63-6.47,10.6-13.41,10.65a13.09,13.09,0,0,1-13.31-10.5,93.32,93.32,0,0,1-2.35-24.94,34,34,0,0,0-6.48-20.88,27.26,27.26,0,0,0-3.9-4.54,3.83,3.83,0,0,1-1-4.43,37.53,37.53,0,0,1,4.29-8.71,2.8,2.8,0,0,0-2.26-.18c-5.37,1-8.91-1.66-9.14-7.19A13.52,13.52,0,0,0,342.53,76a32.19,32.19,0,0,1-4.69-7.52c-1.58-3.32-2.23-6.65-1-10.31,1.2-3.43,2.36-6.86,3.54-10.29a11.65,11.65,0,0,1,5.34-6.24,34.74,34.74,0,0,1,6.21-2.9,9.27,9.27,0,0,1,7.91.52,102.18,102.18,0,0,0,12.75,5.66c-1.31-1.08-2.61-2.17-3.93-3.23-3.07-2.45-6.22-4.8-9.18-7.36a4.47,4.47,0,0,0-4.26-1.12c-1.79.43-3.58.89-5.35,1.39a3.19,3.19,0,0,1-4.32-3.45A9.16,9.16,0,0,1,349,24.26c6.06-5.09,12.53-9.11,20.73-9.6a15.81,15.81,0,0,1,6.68,1.2,8.94,8.94,0,0,0,6.87.14c6.83-2.74,13.2-1,19.34,2.26a50.69,50.69,0,0,1,9.19,6.58c2.19,1.87,2.77,4.32,2.76,7a3,3,0,0,1-4,2.82,38.26,38.26,0,0,0-6.68-1.53,3.1,3.1,0,0,0-2.45.68c-4.3,3.51-8.65,7-13,10.44C388.2,44.87,388.36,45.06,389,44.77Z" transform="translate(-6.17 -8.09)" style="fill:#34baba"/><path d="M412.2,98.52c1.52,1,3,2,4.56,2.89,4.86,2.73,9.8,5.28,15.67,4.49a7.34,7.34,0,0,0,4.76-2.17,109.17,109.17,0,0,1,12-11.67c-.15-.67-.6-.58-.91-.67-9.06-2.56-9.16-11.73-4.55-16.93,1.37-1.55,3-2.88,4.44-4.35a18,18,0,0,0,3.91-5.88,9.87,9.87,0,0,0-.72-9.16c-4.31-7.5-3.6-14.74,1.36-21.68,2.52-3.53,6.36-6.1,12.26-8.14a34.77,34.77,0,0,0-11.22-1.81c-12.48-.21-23,4.47-32,13.07-.36.35-.59,1-1.14.94-.77-.14-.54-1-.66-1.48a37,37,0,0,1-1.08-8.6c0-2.52-1.6-3.72-3.1-5-1.16-1-1.13-1.54.1-2.46,14.88-11,31.17-13.47,48.76-8.22a3.15,3.15,0,0,1,2.37,1.71c6.52,14.18,17.42,24.31,30.33,32.48,1.54,1,1.86,1.81,1.46,3.54-2.38,10.28-5.91,20-12.26,28.59a42.4,42.4,0,0,1-5.36,5.92A21.65,21.65,0,0,1,472.28,89c-13.78,3.87-25.37,11.49-35.38,21.61a4,4,0,0,1-4.12,1.24C424.26,110,417.89,104.83,412.2,98.52Z" transform="translate(-6.17 -8.09)" style="fill:#34baba"/><path d="M347.7,99.56c-5.81,5.62-12.05,10.5-20.2,12.24a4.16,4.16,0,0,1-4.29-1.37C312.6,99.8,300.28,92.09,285.67,88.21c-4-1.06-6.78-4.17-9.44-7.15-7.91-8.88-11.94-19.63-14.71-31-.54-2.18-.22-3.29,1.84-4.59,12.08-7.61,22.35-17.1,28.79-30.11A7.56,7.56,0,0,1,297.63,11C314.4,6.77,329.87,9.25,344,19.6c1.59,1.17,1.68,1.83.14,3a6.61,6.61,0,0,0-2.86,5.64,48.2,48.2,0,0,1-1,7.7c-.08.52.18,1.38-.59,1.47-.36,0-.84-.51-1.19-.87A45.67,45.67,0,0,0,326,27.72a42.89,42.89,0,0,0-29.82-2.87,6.41,6.41,0,0,0-.83.45,38.31,38.31,0,0,1,5.69,2.42c7.73,4.23,14.35,15.53,8.17,26.8-3.25,5.92-2.1,10.7,3.27,16.12.73.73,1.53,1.4,2.3,2.09,3.53,3.1,5.41,6.91,4.42,11.65-.9,4.3-4.17,6.24-8.43,7.32l3,2.76a97.26,97.26,0,0,1,8.32,8.3c3.17,3.73,7.45,3.86,11.84,2.79,4.89-1.18,9.13-3.75,13.26-6.51C347.64,98.94,347.79,99.13,347.7,99.56Z" transform="translate(-6.17 -8.09)" style="fill:#34baba"/><path d="M355.83,157.32a42.14,42.14,0,0,1-7.09-18.25,60.38,60.38,0,0,1,1.12-23.83c.31-1.3.71-2.52,2.21-2.7s2.21.94,2.87,2.06a11.53,11.53,0,0,1,1.11,10.06c-3.65,10.31-3.27,20.66-.57,31.07C355.62,156.25,355.71,156.79,355.83,157.32Z" transform="translate(-6.17 -8.09)" style="fill:#34baba"/><path d="M404.37,156.92a62.83,62.83,0,0,0,2.08-9.95c.78-7.47.4-14.8-2.16-21.94a11.86,11.86,0,0,1,1.38-11,2.49,2.49,0,0,1,2.56-1.41,2.44,2.44,0,0,1,2,2.1c3.25,14,2.75,27.52-4.18,40.41C405.72,155.72,405.53,156.48,404.37,156.92Z" transform="translate(-6.17 -8.09)" style="fill:#34baba"/><path d="M392.19,179.22c-1.13,4.8-5.77,7.72-12,7.81-6.78.09-10.93-2.42-12.4-7.9C376,184.24,384,184,392.19,179.22Z" transform="translate(-6.17 -8.09)" style="fill:#34baba"/><path d="M391.47,169.11c-1.3,5-5.79,7.92-11.82,7.87s-9.75-2.72-11.06-8C376.25,174.19,383.83,173.78,391.47,169.11Z" transform="translate(-6.17 -8.09)" style="fill:#34baba"/><path d="M370,189.48c8.13,5,10.6,5,20.11.21-1.47,4.17-5.17,6.71-10,6.87C375.84,196.7,372.12,194.18,370,189.48Z" transform="translate(-6.17 -8.09)" style="fill:#34baba"/><path d="M389,44.77a4.34,4.34,0,0,1-2.6,1.18,4.74,4.74,0,0,1,2.05-1.72Z" transform="translate(-6.17 -8.09)" style="fill:#fff"/><path d="M347.7,99.56l-.51-.52L349,97.56A2,2,0,0,1,347.7,99.56Z" transform="translate(-6.17 -8.09)" style="fill:#9ea0a4"/><path d="M362.46,77.76c-1.92-3.84-4.79-3-7.8-2.53a4.5,4.5,0,0,1-4.75-2.59c-2.1-4-4.25-8-6.34-11.94-1-1.89-.36-3.12,1.52-2.93,9.38.94,17.69,8.63,17.74,18.35,0,.34-.05.67-.08,1Z" transform="translate(-6.17 -8.09)" style="fill:#fff"/><path d="M397.72,77.37a15.58,15.58,0,0,1,3.88-12.43,20.18,20.18,0,0,1,13.12-7.15c.83-.11,1.66-.2,2.18.63s.16,1.53-.24,2.28c-2.1,3.92-4.15,7.86-6.24,11.78a4.77,4.77,0,0,1-5.54,2.68C402,74.38,399.56,74.42,397.72,77.37Z" transform="translate(-6.17 -8.09)" style="fill:#fff"/><path d="M368.26,134.25c11,7.64,13.19,7.64,23.56,0-.25,6.59-5.62,12.1-11.85,12.16C373.48,146.48,368.69,141.5,368.26,134.25Z" transform="translate(-6.17 -8.09)" style="fill:#fff"/><path d="M369.2,147.35c7.34,6.86,14.51,6.33,21.7.21-.15,6.92-4.42,11.57-10.44,11.68C373.83,159.37,369.75,155.24,369.2,147.35Z" transform="translate(-6.17 -8.09)" style="fill:#fff"/><path d="M392.9,101.84c-11.12-2.49-14.51-2.42-28.24.56,3.94-6.84,19.73-7.41,29.65-1.08C394.17,102.38,393.47,101.93,392.9,101.84Z" transform="translate(-6.17 -8.09)" style="fill:#fff"/><path d="M364.21,90.75c7.68-5.29,23.73-5.34,31.76.07A93.32,93.32,0,0,0,364.21,90.75Z" transform="translate(-6.17 -8.09)" style="fill:#fff"/><path d="M370.18,128.3a49,49,0,0,0,19.6,0C385.11,134.12,376,135.59,370.18,128.3Z" transform="translate(-6.17 -8.09)" style="fill:#fff"/><path d="M367.35,80c7.79-5.12,19.16-5,25.58.29a66.94,66.94,0,0,0-12.85-1.39A102.33,102.33,0,0,0,367.35,80Z" transform="translate(-6.17 -8.09)" style="fill:#fff"/><path d="M369.58,119.11a111.31,111.31,0,0,0,21.05,0C385.94,124.2,375.51,124.1,369.58,119.11Z" transform="translate(-6.17 -8.09)" style="fill:#fff"/><path d="M390.62,112.07a96.82,96.82,0,0,0-10.49-.95,75.86,75.86,0,0,0-10.42,1C373.82,107.44,385.29,107.37,390.62,112.07Z" transform="translate(-6.17 -8.09)" style="fill:#fff"/><path d="M371.62,68.67c5.77-3.1,11-3.07,16.77,0Z" transform="translate(-6.17 -8.09)" style="fill:#fff"/><path d="M384.52,58.58h-8.8A7.25,7.25,0,0,1,384.52,58.58Z" transform="translate(-6.17 -8.09)" style="fill:#fff"/><path d="M392.9,101.84c.47-.17,1.11.11,1.41-.52.92.18,1.44.86,2.31,1.65A11.25,11.25,0,0,1,392.9,101.84Z" transform="translate(-6.17 -8.09)" style="fill:#fff"/><path d="M350.88,62.85a15.88,15.88,0,0,1,7.52,7.85C354.66,70.72,351.36,67.35,350.88,62.85Z" transform="translate(-6.17 -8.09)"/><path d="M401.73,70.93a15.84,15.84,0,0,1,7.39-8C409.47,66.58,406.35,70,401.73,70.93Z" transform="translate(-6.17 -8.09)"/><path d="M47.18,152.56,35.8,164.87v30.47H13.9V88.69H35.8V137l9.63-13.26L72.5,88.69H99.43L61.7,136.08l38.82,59.26h-26Z" transform="translate(-6.17 -8.09)"/><path d="M129.64,195.34H108.48V82.83h21.16Z" transform="translate(-6.17 -8.09)"/><path d="M146.86,95.57A10.45,10.45,0,0,1,150,87.74c2.12-2.06,5-3.08,8.65-3.08a11.89,11.89,0,0,1,8.61,3.08,11.22,11.22,0,0,1,0,15.74,13.48,13.48,0,0,1-17.15,0A10.38,10.38,0,0,1,146.86,95.57Zm22.4,99.77H148.1V116.08h21.16Z" transform="translate(-6.17 -8.09)"/><path d="M206.4,116.08l.66,8.87q8.4-10.33,22.7-10.33,15.24,0,20.94,12.09,8.32-12.09,23.72-12.09,12.84,0,19.11,7.51t6.28,22.6v50.61H278.65V144.8q0-6.74-2.63-9.85t-9.27-3.12q-9.48,0-13.13,9.09l.07,54.42H232.6V144.87q0-6.88-2.7-10t-9.19-3.08q-9,0-13,7.48v56H186.63V116.08Z" transform="translate(-6.17 -8.09)"/></svg>