<?xml version="1.0" encoding="utf-8"?>
<!-- Generator: Adobe Illustrator 24.1.2, SVG Export Plug-In . SVG Version: 6.00 Build 0)  -->
<svg version="1.1" id="Camada_1" xmlns="http://www.w3.org/2000/svg" xmlns:xlink="http://www.w3.org/1999/xlink" x="0px" y="0px"
	 viewBox="0 0 38 48" style="enable-background:new 0 0 38 48;" xml:space="preserve">
<style type="text/css">
	.st0{fill:#FFFFFF;}
	.st1{enable-background:new    ;}
</style>
<path d="M9.1,33.7c6.4,2.5,13.4,2.5,19.8,0l-9.9,12L9.1,33.7z"/>
<path d="M24.6,36.5L19,43.3l-5.6-6.8c1.9,0.4,3.7,0.6,5.6,0.6C20.9,37,22.8,36.8,24.6,36.5 M2.5,28L19,48l16.5-20
	C26,36,12,36,2.5,28z"/>
<path class="st0" d="M19,36.5C9.3,36.5,1.5,28.7,1.5,19C1.5,9.3,9.3,1.5,19,1.5c9.7,0,17.5,7.8,17.5,17.5S28.7,36.5,19,36.5z"/>
<path d="M19,3c7.6,0,14.1,5.3,15.6,12.7c0.2,1.1,0.4,2.2,0.4,3.3c0,2.6-0.6,5.2-1.9,7.5c-4.2,7.8-13.8,10.8-21.6,6.6
	c-2.8-1.5-5.1-3.8-6.6-6.6C3.6,24.2,3,21.6,3,19C3,10.2,10.2,3,19,3L19,3 M19,0C10,0,2.2,6.3,0.4,15.1C0.1,16.4,0,17.7,0,19
	c0,3.1,0.8,6.2,2.2,8.9c1.1,2,2.5,3.8,4.3,5.4c7.9,6.9,19.9,6.2,26.8-1.7s6.2-19.9-1.7-26.8C28.1,1.7,23.6,0,19,0z"/>
<g class="st1">
	<path d="M15,13.7v-3.4h6.3v19h-3.7V13.7H15z"/>
</g>
</svg>
