<?xml version="1.0" encoding="utf-8"?>
<!-- Generator: Adobe Illustrator 24.1.2, SVG Export Plug-In . SVG Version: 6.00 Build 0)  -->
<svg version="1.1" id="Camada_1" xmlns="http://www.w3.org/2000/svg" xmlns:xlink="http://www.w3.org/1999/xlink" x="0px" y="0px"
	 viewBox="0 0 38 48" style="enable-background:new 0 0 38 48;" xml:space="preserve">
<style type="text/css">
	.st0{fill:#FFFFFF;}
	.st1{enable-background:new    ;}
</style>
<path d="M9.1,33.7c6.4,2.5,13.4,2.5,19.8,0l-9.9,12L9.1,33.7z"/>
<path d="M24.6,36.5L19,43.3l-5.6-6.8c1.9,0.4,3.7,0.6,5.6,0.6C20.9,37,22.8,36.8,24.6,36.5 M2.5,28L19,48l16.5-20
	C26,36,12,36,2.5,28z"/>
<path class="st0" d="M19,36.5C9.3,36.5,1.5,28.7,1.5,19c0-1.2,0.1-2.4,0.4-3.6c2-9.5,11.3-15.5,20.7-13.5
	c6.8,1.4,12.1,6.7,13.5,13.5c0.3,1.2,0.4,2.4,0.4,3.6C36.5,28.7,28.7,36.5,19,36.5z"/>
<path d="M19,3c8.8,0,16,7.2,16,16l0,0c0,8.8-7.2,16-16,16c-3.9,0-7.6-1.4-10.5-4C5,28,3,23.6,3,19C3,10.2,10.2,3,19,3 M19,0
	C8.5,0,0,8.5,0,19s8.5,19,19,19s19-8.5,19-19c0-1.3-0.1-2.6-0.4-3.9C35.7,6.3,28,0,19,0z"/>
<g class="st1">
	<path d="M6.3,13.4V9.3h7.2v19H8.9V13.4H6.3z"/>
	<path d="M18.3,11.5c1.2-1.7,3-2.6,5.6-2.6s4.4,0.9,5.6,2.6c1.2,1.7,1.7,4.1,1.7,7c0,3-0.6,5.4-1.7,7.1c-1.2,1.7-3,2.6-5.6,2.6
		s-4.4-0.9-5.6-2.6c-1.2-1.7-1.7-4.1-1.7-7.1C16.6,15.5,17.2,13.2,18.3,11.5z M26.3,14.5c-0.4-0.9-1.2-1.4-2.4-1.4s-2,0.5-2.4,1.4
		c-0.4,0.9-0.6,2.3-0.6,4c0,1.2,0.1,2.2,0.2,2.9c0.1,0.8,0.4,1.4,0.8,1.9c0.4,0.5,1.1,0.7,1.9,0.7s1.5-0.2,1.9-0.7
		c0.4-0.5,0.7-1.1,0.8-1.9c0.1-0.8,0.2-1.7,0.2-2.9C26.8,16.7,26.6,15.4,26.3,14.5z"/>
</g>
</svg>
