<?xml version="1.0" encoding="utf-8"?>
<!-- Generator: Adobe Illustrator 24.1.2, SVG Export Plug-In . SVG Version: 6.00 Build 0)  -->
<svg version="1.1" id="Camada_1" xmlns="http://www.w3.org/2000/svg" xmlns:xlink="http://www.w3.org/1999/xlink" x="0px" y="0px"
	 viewBox="0 0 38 48" style="enable-background:new 0 0 38 48;" xml:space="preserve">
<style type="text/css">
	.st0{fill:#FFFFFF;}
	.st1{enable-background:new    ;}
</style>
<path d="M9.1,33.7c6.4,2.5,13.4,2.5,19.8,0l-9.9,12L9.1,33.7z"/>
<path d="M24.6,36.5L19,43.3l-5.6-6.8c1.9,0.4,3.7,0.6,5.6,0.6C20.9,37,22.8,36.8,24.6,36.5 M2.5,28L19,48l16.5-20
	C26,36,12,36,2.5,28z"/>
<path class="st0" d="M19,36.5C9.3,36.5,1.5,28.7,1.5,19C1.5,9.3,9.3,1.5,19,1.5c8.3,0,15.4,5.8,17.1,13.9c0.3,1.2,0.4,2.4,0.4,3.6
	c0,2.9-0.7,5.7-2,8.2C31.4,32.9,25.5,36.5,19,36.5z"/>
<path d="M19,3c8.8,0,16,7.2,16,16c0,8.8-7.2,16-16,16c-5.9,0-11.3-3.3-14.1-8.5C3.6,24.2,3,21.6,3,19C3,10.2,10.2,3,19,3 M19,0
	C8.5,0,0,8.5,0,19s8.5,19,19,19s19-8.5,19-19c0-1.3-0.1-2.6-0.4-3.9C35.7,6.3,28,0,19,0z"/>
<g class="st1">
	<path d="M7.4,13.4V9.3h7.2v19H10V13.4H7.4z"/>
	<path d="M26.3,12.9c-0.3-0.3-0.8-0.5-1.5-0.5c-1,0-1.7,0.4-2.1,1.3C22.2,14.6,22,16,22,17.8c0.4-0.6,0.9-1.1,1.7-1.4
		c0.7-0.3,1.5-0.5,2.4-0.5c1.7,0,3.1,0.5,4.1,1.6c1,1.1,1.5,2.6,1.5,4.5c0,1.3-0.3,2.4-0.8,3.3c-0.5,1-1.3,1.7-2.2,2.2
		c-1,0.5-2.1,0.8-3.5,0.8c-2.7,0-4.5-0.8-5.6-2.5c-1-1.7-1.6-4.1-1.6-7.2c0-3.3,0.6-5.7,1.7-7.3s2.9-2.4,5.3-2.4
		c1.3,0,2.4,0.3,3.3,0.8c0.9,0.5,1.6,1.2,2,2s0.7,1.7,0.8,2.7H27C26.9,13.8,26.6,13.3,26.3,12.9z M23.1,20c-0.5,0.4-0.7,1.1-0.7,1.9
		c0,0.8,0.2,1.5,0.7,2c0.5,0.5,1.1,0.7,2,0.7c0.8,0,1.4-0.2,1.8-0.7c0.4-0.5,0.7-1.1,0.7-1.9c0-0.8-0.2-1.5-0.7-1.9
		s-1.1-0.7-1.9-0.7C24.2,19.4,23.6,19.6,23.1,20z"/>
</g>
</svg>
