<?xml version="1.0" encoding="utf-8"?>
<!-- Generator: Adobe Illustrator 24.1.2, SVG Export Plug-In . SVG Version: 6.00 Build 0)  -->
<svg version="1.1" id="Camada_1" xmlns="http://www.w3.org/2000/svg" xmlns:xlink="http://www.w3.org/1999/xlink" x="0px" y="0px"
	 viewBox="0 0 38 48" style="enable-background:new 0 0 38 48;" xml:space="preserve">
<style type="text/css">
	.st0{fill:#FFFFFF;}
	.st1{enable-background:new    ;}
</style>
<path d="M9.1,33.7c6.4,2.5,13.4,2.5,19.8,0l-9.9,12L9.1,33.7z"/>
<path d="M24.6,36.5L19,43.3l-5.6-6.8c1.9,0.4,3.7,0.6,5.6,0.6C20.9,37,22.8,36.8,24.6,36.5 M2.5,28L19,48l16.5-20
	C26,36,12,36,2.5,28z"/>
<path class="st0" d="M19,36.5c-4.2,0-8.3-1.6-11.5-4.4c-1.6-1.4-2.9-3.1-3.9-4.9c-1.4-2.5-2.1-5.4-2.1-8.2C1.5,9.3,9.3,1.5,19,1.5
	c8.3,0,15.4,5.8,17.1,13.9c0.3,1.2,0.4,2.4,0.4,3.6c0,2.9-0.7,5.7-2,8.2C31.4,32.9,25.5,36.5,19,36.5z"/>
<path d="M19,3c8.8,0,16,7.2,16,16c0,8.8-7.2,16-16,16c-3.9,0-7.6-1.4-10.5-4C5,28,3,23.6,3,19C3,10.2,10.2,3,19,3 M19,0
	C8.5,0,0,8.5,0,19s8.5,19,19,19s19-8.5,19-19c0-1.3-0.1-2.6-0.4-3.9C35.7,6.3,28,0,19,0z"/>
<g class="st1">
	<path d="M13.4,24c1.7-1.4,3-2.6,4-3.5c1-0.9,1.8-1.8,2.5-2.8c0.7-1,1-2,1-2.9c0-0.7-0.2-1.3-0.5-1.7s-0.8-0.6-1.5-0.6
		s-1.2,0.2-1.5,0.7c-0.4,0.5-0.6,1.2-0.6,2.1h-4.3c0-1.5,0.4-2.7,0.9-3.7c0.6-1,1.4-1.7,2.4-2.2c1-0.5,2.1-0.7,3.3-0.7
		c2.1,0,3.6,0.5,4.7,1.6c1,1.1,1.6,2.4,1.6,4.1c0,1.9-0.6,3.6-1.9,5.2c-1.3,1.6-2.9,3.1-4.8,4.6h7V28H12.6v-3.3
		C13.2,24.2,13.5,24,13.4,24z"/>
</g>
</svg>
