<?xml version="1.0" encoding="utf-8"?>
<!-- Generator: Adobe Illustrator 24.1.2, SVG Export Plug-In . SVG Version: 6.00 Build 0)  -->
<svg version="1.1" id="Camada_1" xmlns="http://www.w3.org/2000/svg" xmlns:xlink="http://www.w3.org/1999/xlink" x="0px" y="0px"
	 viewBox="0 0 38 48" style="enable-background:new 0 0 38 48;" xml:space="preserve">
<style type="text/css">
	.st0{fill:#FFFFFF;}
	.st1{enable-background:new    ;}
</style>
<path d="M9.1,33.7c6.4,2.5,13.4,2.5,19.8,0l-9.9,12L9.1,33.7z"/>
<path d="M24.6,36.5L19,43.3l-5.6-6.8c1.8,0.4,3.7,0.5,5.6,0.5C20.9,37,22.8,36.8,24.6,36.5 M2.5,28L19,48l16.5-20
	C26,36,12,36,2.5,28z"/>
<path class="st0" d="M19,36.5C9.3,36.5,1.5,28.7,1.5,19C1.5,9.3,9.3,1.5,19,1.5c8.3,0,15.4,5.8,17.1,13.9c0.3,1.2,0.4,2.4,0.4,3.6
	c0,2.9-0.7,5.7-2,8.2C31.4,32.9,25.5,36.5,19,36.5z"/>
<path d="M19,3c8.8,0,16,7.2,16,16c0,8.8-7.2,16-16,16c-3.9,0-7.6-1.4-10.5-4C5,28,3,23.6,3,19C3,10.2,10.2,3,19,3 M19,0
	C8.5,0,0,8.5,0,19s8.5,19,19,19s19-8.5,19-19c0-1.3-0.1-2.6-0.4-3.9C35.7,6.3,28,0,19,0z"/>
<g class="st1">
	<path d="M11.5,24.9v-3.6l8.2-11.8h5V21h2.1v3.8h-2.1v3.4h-4.4v-3.4H11.5z M20.5,14.4L16.2,21h4.4V14.4z"/>
</g>
</svg>
