<?xml version="1.0" encoding="utf-8"?>
<!-- Generator: Adobe Illustrator 24.1.2, SVG Export Plug-In . SVG Version: 6.00 Build 0)  -->
<svg version="1.1" id="Camada_1" xmlns="http://www.w3.org/2000/svg" xmlns:xlink="http://www.w3.org/1999/xlink" x="0px" y="0px"
	 viewBox="0 0 38 48" style="enable-background:new 0 0 38 48;" xml:space="preserve">
<style type="text/css">
	.st0{fill:#FFFFFF;}
	.st1{enable-background:new    ;}
</style>
<path d="M9.1,33.7c6.4,2.5,13.4,2.5,19.8,0l-9.9,12L9.1,33.7z"/>
<path d="M24.6,36.5L19,43.3l-5.6-6.8c1.9,0.4,3.7,0.5,5.6,0.5C20.9,37,22.8,36.8,24.6,36.5 M2.5,28L19,48l16.5-20
	C26,36,12,36,2.5,28L2.5,28z"/>
<path class="st0" d="M19,36.5c-4.2,0-8.3-1.6-11.5-4.4C2.7,28,0.6,21.6,1.9,15.4c2-9.5,11.3-15.5,20.7-13.5
	c6.8,1.4,12.1,6.7,13.5,13.5c0.2,1.2,0.4,2.4,0.4,3.6C36.5,28.6,28.7,36.5,19,36.5z"/>
<path d="M19,3c8.8,0,16,7.2,16,16c0,2.6-0.6,5.2-1.9,7.5c-4.1,7.8-13.8,10.8-21.6,6.6S0.7,19.3,4.9,11.5C7.7,6.3,13.1,3,19,3 M19,0
	C8.5,0,0,8.5,0,19c0,10.5,8.5,19,19,19c4.6,0,9.1-1.7,12.6-4.7c1.7-1.5,3.2-3.3,4.2-5.4c1.5-2.7,2.2-5.8,2.2-8.9
	c0-1.3-0.1-2.6-0.4-3.9C35.7,6.3,28,0,19,0z"/>
<g class="st1">
	<path d="M25.3,12.6l-6.5,15.7h-4.5l6.6-15.2h-8.1V9.3h12.6V12.6z"/>
</g>
</svg>
