<svg id="Camada_1" data-name="Camada 1" xmlns="http://www.w3.org/2000/svg" viewBox="0 0 38 48"><defs><style>.cls-1{fill:#fff;}.cls-2{fill:red;}.cls-3{fill:#1976d2;}</style></defs><title>m_home</title><path d="M14.48,34.66a27.36,27.36,0,0,0,19.78,0l-9.89,12Z" transform="translate(-5.37 -1)"/><path d="M30,37.46l-5.64,6.83-5.63-6.83a28.59,28.59,0,0,0,5.63.56A28.69,28.69,0,0,0,30,37.46M7.87,29l16.5,20,16.5-20a25.62,25.62,0,0,1-33,0Z" transform="translate(-5.37 -1)"/><path class="cls-1" d="M24.37,37.5A17.52,17.52,0,0,1,6.87,20,17.51,17.51,0,0,1,24.37,2.5a17.5,17.5,0,0,1,0,35Z" transform="translate(-5.37 -1)"/><path d="M24.37,4A16.06,16.06,0,0,1,40,16.69,15.45,15.45,0,0,1,40.37,20a15.83,15.83,0,0,1-1.87,7.51,16,16,0,0,1-28.25,0A15.73,15.73,0,0,1,8.37,20a16,16,0,0,1,16-16m0-3A19,19,0,0,0,5.78,16.07,19.55,19.55,0,0,0,5.37,20,18.87,18.87,0,0,0,7.6,28.92a19.24,19.24,0,0,0,4.25,5.35A19,19,0,1,0,24.37,1Z" transform="translate(-5.37 -1)"/><path class="cls-2" d="M32.35,9c-3.25-3.33-9.73-2-14.76,3.08s-6.44,11.63-3.19,15a6.35,6.35,0,0,0,4.65,1.82,10.11,10.11,0,0,0,1.87-.18,8.51,8.51,0,0,1-2.76-1.88,4.09,4.09,0,0,1-2.39-1.15c-1.53-1.57-1.49-4.42-.17-7.35v0A16.31,16.31,0,0,1,19,13.51a16.11,16.11,0,0,1,5-3.45,9.83,9.83,0,0,1,3.8-.86A4.41,4.41,0,0,1,31,10.42a4.35,4.35,0,0,1,1.15,3,8.44,8.44,0,0,1-.41,2.85A15.47,15.47,0,0,1,27.8,22.6a15.82,15.82,0,0,1-4.73,3.32,5.27,5.27,0,0,0,1.67.25,4.73,4.73,0,0,0,3.07-.94,2.75,2.75,0,0,0,.26-.22,4.92,4.92,0,0,0,1.14-1.81h.7C34.32,18.26,35.42,12.19,32.35,9Z" transform="translate(-5.37 -1)"/><path class="cls-3" d="M29.91,23.2c-.24.27-.49.54-.75.8s-.72.7-1.09,1a2.75,2.75,0,0,1-.26.22,15.58,15.58,0,0,1-6.88,3.49,9.76,9.76,0,0,0,3.81.73,9.13,9.13,0,0,0,5.6-1.69,8.46,8.46,0,0,0,3.07-4.56Zm2.21-9.78a7.1,7.1,0,0,0-1.73-1.77A9.4,9.4,0,0,0,24.74,10q-.4,0-.81,0a9.19,9.19,0,0,0-4,1.16,8.41,8.41,0,0,0-3.26,3.4,10.24,10.24,0,0,0-1.1,3.7v0a12.25,12.25,0,0,0-.07,1.38,10.66,10.66,0,0,0,1.17,5.1,9.4,9.4,0,0,0,1.46,2,8.94,8.94,0,0,0,4.91-.92,4.53,4.53,0,0,1-2.14-1.46,7.21,7.21,0,0,1-1.41-4.74A7.15,7.15,0,0,1,20.93,15a4.72,4.72,0,0,1,3.81-1.69,4.85,4.85,0,0,1,2.83.78,4.43,4.43,0,0,1,1.64,2.18h4.2A8.65,8.65,0,0,0,32.12,13.42Z" transform="translate(-5.37 -1)"/><path class="cls-2" d="M29.91,23.2c-.24.27-.49.54-.75.8s-.72.7-1.09,1a4.92,4.92,0,0,0,1.14-1.81Z" transform="translate(-5.37 -1)"/><path class="cls-2" d="M27.81,25.23a15.58,15.58,0,0,1-6.88,3.49h0a8.51,8.51,0,0,1-2.76-1.88,8.94,8.94,0,0,0,4.91-.92,5.27,5.27,0,0,0,1.67.25A4.73,4.73,0,0,0,27.81,25.23Z" transform="translate(-5.37 -1)"/></svg>